# xmcd
#
# Track frame offsets: 
#        150
#        23993
#        47839
#        68612
#        88750
#        108690
#        124662
#        151409
#        167062
#
# Disc length: 2951 seconds
#
# Revision: 0
# Processed by: cddbd v1.5.2PL0 Copyright (c) Steve Scherf et al.
# Submitted via: ExactAudioCopy v0.99pb5
#
DISCID=730b8509
DTITLE=Dirty Shame, The - The Dirty Shame
DYEAR=2010
DGENRE=Country
TTITLE0=Don't Let the Deal Go Down
TTITLE1=Last Rodeo
TTITLE2=Loophole
TTITLE3=Sarah
TTITLE4=Spades
TTITLE5=Last Call
TTITLE6=Lonesome Highway
TTITLE7=Another Round
TTITLE8=Into the Darkness
EXTD=
EXTT0=
EXTT1=
EXTT2=
EXTT3=
EXTT4=
EXTT5=
EXTT6=
EXTT7=
EXTT8=
PLAYORDER=
